<svg width="189" height="40" viewBox="0 0 189 40" fill="none" xmlns="http://www.w3.org/2000/svg">
<path d="M0 20C0 8.95431 8.9543 0 20 0H169C180.046 0 189 8.95431 189 20C189 31.0457 180.046 40 169 40H20C8.95431 40 0 31.0457 0 20Z" fill="#6F2CFF"/>
<path d="M55.0371 19.2466C53.8311 18.8999 52.9521 18.4751 52.4004 17.9722C51.8535 17.4644 51.5801 16.8394 51.5801 16.0972C51.5801 15.2573 51.9146 14.564 52.5835 14.0171C53.2573 13.4653 54.1313 13.1895 55.2056 13.1895C55.938 13.1895 56.5898 13.3311 57.1611 13.6143C57.7373 13.8975 58.1816 14.2881 58.4941 14.7861C58.8115 15.2842 58.9702 15.8286 58.9702 16.4194H57.5566C57.5566 15.7749 57.3516 15.2695 56.9414 14.9033C56.5312 14.5322 55.9526 14.3467 55.2056 14.3467C54.5122 14.3467 53.9702 14.5005 53.5796 14.8081C53.1938 15.1108 53.001 15.5332 53.001 16.0752C53.001 16.5098 53.1841 16.8784 53.5503 17.1812C53.9214 17.479 54.5488 17.7524 55.4326 18.0015C56.3213 18.2505 57.0146 18.5264 57.5127 18.8291C58.0156 19.127 58.3867 19.4761 58.626 19.8765C58.8701 20.2769 58.9922 20.748 58.9922 21.29C58.9922 22.1543 58.6553 22.8477 57.9814 23.3701C57.3076 23.8877 56.4067 24.1465 55.2788 24.1465C54.5464 24.1465 53.8628 24.0073 53.228 23.729C52.5933 23.4458 52.1025 23.0601 51.7559 22.5718C51.4141 22.0835 51.2432 21.5293 51.2432 20.9092H52.6567C52.6567 21.5537 52.8936 22.064 53.3672 22.4399C53.8457 22.811 54.4829 22.9966 55.2788 22.9966C56.021 22.9966 56.5898 22.8452 56.9854 22.5425C57.3809 22.2397 57.5786 21.8271 57.5786 21.3047C57.5786 20.7822 57.3955 20.3794 57.0293 20.0962C56.6631 19.8081 55.999 19.5249 55.0371 19.2466ZM63.8774 24.1465C62.8032 24.1465 61.9292 23.7949 61.2554 23.0918C60.5815 22.3838 60.2446 21.439 60.2446 20.2573V20.0083C60.2446 19.2222 60.3936 18.5215 60.6914 17.9062C60.9941 17.2861 61.4141 16.8027 61.9512 16.4561C62.4932 16.1045 63.0791 15.9287 63.709 15.9287C64.7393 15.9287 65.54 16.2681 66.1113 16.9468C66.6826 17.6255 66.9683 18.5972 66.9683 19.8618V20.4258H61.5996C61.6191 21.207 61.8462 21.8394 62.2808 22.3228C62.7202 22.8013 63.2769 23.0405 63.9507 23.0405C64.4292 23.0405 64.8345 22.9429 65.1665 22.7476C65.4985 22.5522 65.7891 22.2935 66.0381 21.9712L66.8657 22.6157C66.2017 23.6362 65.2056 24.1465 63.8774 24.1465ZM63.709 17.042C63.1621 17.042 62.7031 17.2422 62.332 17.6426C61.9609 18.0381 61.7314 18.5947 61.6436 19.3125H65.6133V19.21C65.5742 18.5215 65.3887 17.9893 65.0566 17.6133C64.7246 17.2324 64.2754 17.042 63.709 17.042ZM71.8315 24.1465C70.7573 24.1465 69.8833 23.7949 69.2095 23.0918C68.5356 22.3838 68.1987 21.439 68.1987 20.2573V20.0083C68.1987 19.2222 68.3477 18.5215 68.6455 17.9062C68.9482 17.2861 69.3682 16.8027 69.9053 16.4561C70.4473 16.1045 71.0332 15.9287 71.6631 15.9287C72.6934 15.9287 73.4941 16.2681 74.0654 16.9468C74.6367 17.6255 74.9224 18.5972 74.9224 19.8618V20.4258H69.5537C69.5732 21.207 69.8003 21.8394 70.2349 22.3228C70.6743 22.8013 71.231 23.0405 71.9048 23.0405C72.3833 23.0405 72.7886 22.9429 73.1206 22.7476C73.4526 22.5522 73.7432 22.2935 73.9922 21.9712L74.8198 22.6157C74.1558 23.6362 73.1597 24.1465 71.8315 24.1465ZM71.6631 17.042C71.1162 17.042 70.6572 17.2422 70.2861 17.6426C69.915 18.0381 69.6855 18.5947 69.5977 19.3125H73.5674V19.21C73.5283 18.5215 73.3428 17.9893 73.0107 17.6133C72.6787 17.2324 72.2295 17.042 71.6631 17.042ZM86.9121 20.1255C86.9121 21.3315 86.6362 22.3032 86.0845 23.0405C85.5327 23.7778 84.7856 24.1465 83.8433 24.1465C82.8813 24.1465 82.1245 23.8413 81.5728 23.231V27.0469H80.2178V16.0752H81.4556L81.5215 16.9541C82.0732 16.2705 82.8398 15.9287 83.8213 15.9287C84.7734 15.9287 85.5254 16.2876 86.0771 17.0054C86.6338 17.7231 86.9121 18.7217 86.9121 20.001V20.1255ZM85.5571 19.9717C85.5571 19.0781 85.3667 18.3726 84.9858 17.855C84.605 17.3374 84.0825 17.0786 83.4185 17.0786C82.5981 17.0786 81.9829 17.4424 81.5728 18.1699V21.9565C81.978 22.6792 82.5981 23.0405 83.4331 23.0405C84.0825 23.0405 84.5977 22.7842 84.9785 22.2715C85.3643 21.7539 85.5571 20.9873 85.5571 19.9717ZM92.4712 17.291C92.2661 17.2568 92.0439 17.2397 91.8047 17.2397C90.916 17.2397 90.313 17.6182 89.9956 18.375V24H88.6406V16.0752H89.959L89.981 16.9907C90.4253 16.2827 91.0552 15.9287 91.8706 15.9287C92.1343 15.9287 92.3345 15.9629 92.4712 16.0312V17.291ZM93.2183 19.9644C93.2183 19.188 93.3696 18.4897 93.6724 17.8696C93.98 17.2495 94.4048 16.771 94.9468 16.4341C95.4937 16.0972 96.1162 15.9287 96.8145 15.9287C97.8936 15.9287 98.7651 16.3022 99.4292 17.0493C100.098 17.7964 100.433 18.79 100.433 20.0303V20.1255C100.433 20.897 100.284 21.5903 99.9858 22.2056C99.6929 22.8159 99.2705 23.292 98.7188 23.6338C98.1719 23.9756 97.542 24.1465 96.8291 24.1465C95.7549 24.1465 94.8833 23.7729 94.2144 23.0259C93.5503 22.2788 93.2183 21.29 93.2183 20.0596V19.9644ZM94.5806 20.1255C94.5806 21.0044 94.7832 21.71 95.1885 22.2422C95.5986 22.7744 96.1455 23.0405 96.8291 23.0405C97.5176 23.0405 98.0645 22.772 98.4697 22.2349C98.875 21.6929 99.0776 20.936 99.0776 19.9644C99.0776 19.0952 98.8701 18.3921 98.4551 17.855C98.0449 17.313 97.498 17.042 96.8145 17.042C96.1455 17.042 95.606 17.3081 95.1958 17.8403C94.7856 18.3726 94.5806 19.1343 94.5806 20.1255ZM101.802 19.9717C101.802 18.7559 102.09 17.7793 102.667 17.042C103.243 16.2998 103.997 15.9287 104.93 15.9287C105.857 15.9287 106.592 16.2461 107.134 16.8809V12.75H108.489V24H107.244L107.178 23.1504C106.636 23.8145 105.882 24.1465 104.915 24.1465C103.997 24.1465 103.248 23.7705 102.667 23.0186C102.09 22.2666 101.802 21.2852 101.802 20.0742V19.9717ZM103.157 20.1255C103.157 21.0239 103.343 21.7271 103.714 22.2349C104.085 22.7427 104.598 22.9966 105.252 22.9966C106.111 22.9966 106.739 22.6108 107.134 21.8394V18.1992C106.729 17.4521 106.106 17.0786 105.267 17.0786C104.603 17.0786 104.085 17.335 103.714 17.8477C103.343 18.3604 103.157 19.1196 103.157 20.1255ZM115.491 23.2163C114.964 23.8364 114.19 24.1465 113.169 24.1465C112.325 24.1465 111.68 23.9023 111.236 23.4141C110.796 22.9209 110.574 22.1934 110.569 21.2314V16.0752H111.924V21.1948C111.924 22.396 112.413 22.9966 113.389 22.9966C114.424 22.9966 115.113 22.6108 115.455 21.8394V16.0752H116.81V24H115.521L115.491 23.2163ZM122.054 23.0405C122.537 23.0405 122.959 22.894 123.321 22.6011C123.682 22.3081 123.882 21.9419 123.921 21.5024H125.203C125.179 21.9565 125.022 22.3887 124.734 22.7988C124.446 23.209 124.061 23.5361 123.577 23.7803C123.099 24.0244 122.591 24.1465 122.054 24.1465C120.975 24.1465 120.115 23.7876 119.476 23.0698C118.841 22.3472 118.523 21.3608 118.523 20.1108V19.8838C118.523 19.1123 118.665 18.4263 118.948 17.8257C119.231 17.2251 119.637 16.7588 120.164 16.4268C120.696 16.0947 121.324 15.9287 122.046 15.9287C122.935 15.9287 123.672 16.1948 124.258 16.7271C124.849 17.2593 125.164 17.9502 125.203 18.7998H123.921C123.882 18.2871 123.687 17.8672 123.335 17.54C122.989 17.208 122.559 17.042 122.046 17.042C121.358 17.042 120.823 17.291 120.442 17.7891C120.066 18.2822 119.878 18.9976 119.878 19.9351V20.1914C119.878 21.1045 120.066 21.8076 120.442 22.3008C120.818 22.7939 121.355 23.0405 122.054 23.0405ZM128.565 14.1562V16.0752H130.044V17.1226H128.565V22.0371C128.565 22.3545 128.631 22.5938 128.763 22.7549C128.895 22.9111 129.119 22.9893 129.437 22.9893C129.593 22.9893 129.808 22.96 130.081 22.9014V24C129.725 24.0977 129.378 24.1465 129.041 24.1465C128.436 24.1465 127.979 23.9634 127.671 23.5972C127.364 23.231 127.21 22.7109 127.21 22.0371V17.1226H125.767V16.0752H127.21V14.1562H128.565ZM136.248 21.8979C136.248 21.5317 136.109 21.2485 135.831 21.0483C135.557 20.8433 135.076 20.6675 134.388 20.521C133.704 20.3745 133.16 20.1987 132.754 19.9937C132.354 19.7886 132.056 19.5444 131.861 19.2612C131.67 18.978 131.575 18.6411 131.575 18.2505C131.575 17.6011 131.849 17.0518 132.396 16.6025C132.947 16.1533 133.65 15.9287 134.505 15.9287C135.403 15.9287 136.131 16.1606 136.688 16.6245C137.249 17.0884 137.53 17.6816 137.53 18.4043H136.167C136.167 18.0332 136.009 17.7134 135.691 17.4448C135.379 17.1763 134.983 17.042 134.505 17.042C134.012 17.042 133.626 17.1494 133.348 17.3643C133.069 17.5791 132.93 17.8599 132.93 18.2065C132.93 18.5337 133.06 18.7803 133.318 18.9463C133.577 19.1123 134.043 19.271 134.717 19.4224C135.396 19.5737 135.945 19.7544 136.365 19.9644C136.785 20.1743 137.095 20.4282 137.295 20.7261C137.5 21.019 137.603 21.3779 137.603 21.8027C137.603 22.5107 137.32 23.0796 136.753 23.5093C136.187 23.9341 135.452 24.1465 134.549 24.1465C133.914 24.1465 133.353 24.0342 132.864 23.8096C132.376 23.585 131.993 23.2725 131.714 22.8721C131.441 22.4668 131.304 22.0298 131.304 21.561H132.659C132.684 22.0151 132.864 22.3765 133.201 22.645C133.543 22.9087 133.992 23.0405 134.549 23.0405C135.062 23.0405 135.472 22.938 135.779 22.7329C136.092 22.5229 136.248 22.2446 136.248 21.8979Z" fill="white"/>
</svg>
