<svg width="1440" height="53" viewBox="0 0 1440 53" fill="none" xmlns="http://www.w3.org/2000/svg">
<path d="M521 26C521 14.9543 529.954 6 541 6H690C701.046 6 710 14.9543 710 26C710 37.0457 701.046 46 690 46H541C529.954 46 521 37.0457 521 26Z" fill="#6F2CFF"/>
<path d="M576.037 25.2466C574.831 24.8999 573.952 24.4751 573.4 23.9722C572.854 23.4644 572.58 22.8394 572.58 22.0972C572.58 21.2573 572.915 20.564 573.583 20.0171C574.257 19.4653 575.131 19.1895 576.206 19.1895C576.938 19.1895 577.59 19.3311 578.161 19.6143C578.737 19.8975 579.182 20.2881 579.494 20.7861C579.812 21.2842 579.97 21.8286 579.97 22.4194H578.557C578.557 21.7749 578.352 21.2695 577.941 20.9033C577.531 20.5322 576.953 20.3467 576.206 20.3467C575.512 20.3467 574.97 20.5005 574.58 20.8081C574.194 21.1108 574.001 21.5332 574.001 22.0752C574.001 22.5098 574.184 22.8784 574.55 23.1812C574.921 23.479 575.549 23.7524 576.433 24.0015C577.321 24.2505 578.015 24.5264 578.513 24.8291C579.016 25.127 579.387 25.4761 579.626 25.8765C579.87 26.2769 579.992 26.748 579.992 27.29C579.992 28.1543 579.655 28.8477 578.981 29.3701C578.308 29.8877 577.407 30.1465 576.279 30.1465C575.546 30.1465 574.863 30.0073 574.228 29.729C573.593 29.4458 573.103 29.0601 572.756 28.5718C572.414 28.0835 572.243 27.5293 572.243 26.9092H573.657C573.657 27.5537 573.894 28.064 574.367 28.4399C574.846 28.811 575.483 28.9966 576.279 28.9966C577.021 28.9966 577.59 28.8452 577.985 28.5425C578.381 28.2397 578.579 27.8271 578.579 27.3047C578.579 26.7822 578.396 26.3794 578.029 26.0962C577.663 25.8081 576.999 25.5249 576.037 25.2466ZM584.877 30.1465C583.803 30.1465 582.929 29.7949 582.255 29.0918C581.582 28.3838 581.245 27.439 581.245 26.2573V26.0083C581.245 25.2222 581.394 24.5215 581.691 23.9062C581.994 23.2861 582.414 22.8027 582.951 22.4561C583.493 22.1045 584.079 21.9287 584.709 21.9287C585.739 21.9287 586.54 22.2681 587.111 22.9468C587.683 23.6255 587.968 24.5972 587.968 25.8618V26.4258H582.6C582.619 27.207 582.846 27.8394 583.281 28.3228C583.72 28.8013 584.277 29.0405 584.951 29.0405C585.429 29.0405 585.834 28.9429 586.167 28.7476C586.499 28.5522 586.789 28.2935 587.038 27.9712L587.866 28.6157C587.202 29.6362 586.206 30.1465 584.877 30.1465ZM584.709 23.042C584.162 23.042 583.703 23.2422 583.332 23.6426C582.961 24.0381 582.731 24.5947 582.644 25.3125H586.613V25.21C586.574 24.5215 586.389 23.9893 586.057 23.6133C585.725 23.2324 585.275 23.042 584.709 23.042ZM592.832 30.1465C591.757 30.1465 590.883 29.7949 590.209 29.0918C589.536 28.3838 589.199 27.439 589.199 26.2573V26.0083C589.199 25.2222 589.348 24.5215 589.646 23.9062C589.948 23.2861 590.368 22.8027 590.905 22.4561C591.447 22.1045 592.033 21.9287 592.663 21.9287C593.693 21.9287 594.494 22.2681 595.065 22.9468C595.637 23.6255 595.922 24.5972 595.922 25.8618V26.4258H590.554C590.573 27.207 590.8 27.8394 591.235 28.3228C591.674 28.8013 592.231 29.0405 592.905 29.0405C593.383 29.0405 593.789 28.9429 594.121 28.7476C594.453 28.5522 594.743 28.2935 594.992 27.9712L595.82 28.6157C595.156 29.6362 594.16 30.1465 592.832 30.1465ZM592.663 23.042C592.116 23.042 591.657 23.2422 591.286 23.6426C590.915 24.0381 590.686 24.5947 590.598 25.3125H594.567V25.21C594.528 24.5215 594.343 23.9893 594.011 23.6133C593.679 23.2324 593.229 23.042 592.663 23.042ZM607.912 26.1255C607.912 27.3315 607.636 28.3032 607.084 29.0405C606.533 29.7778 605.786 30.1465 604.843 30.1465C603.881 30.1465 603.125 29.8413 602.573 29.231V33.0469H601.218V22.0752H602.456L602.521 22.9541C603.073 22.2705 603.84 21.9287 604.821 21.9287C605.773 21.9287 606.525 22.2876 607.077 23.0054C607.634 23.7231 607.912 24.7217 607.912 26.001V26.1255ZM606.557 25.9717C606.557 25.0781 606.367 24.3726 605.986 23.855C605.605 23.3374 605.083 23.0786 604.418 23.0786C603.598 23.0786 602.983 23.4424 602.573 24.1699V27.9565C602.978 28.6792 603.598 29.0405 604.433 29.0405C605.083 29.0405 605.598 28.7842 605.979 28.2715C606.364 27.7539 606.557 26.9873 606.557 25.9717ZM613.471 23.291C613.266 23.2568 613.044 23.2397 612.805 23.2397C611.916 23.2397 611.313 23.6182 610.996 24.375V30H609.641V22.0752H610.959L610.981 22.9907C611.425 22.2827 612.055 21.9287 612.871 21.9287C613.134 21.9287 613.334 21.9629 613.471 22.0312V23.291ZM614.218 25.9644C614.218 25.188 614.37 24.4897 614.672 23.8696C614.98 23.2495 615.405 22.771 615.947 22.4341C616.494 22.0972 617.116 21.9287 617.814 21.9287C618.894 21.9287 619.765 22.3022 620.429 23.0493C621.098 23.7964 621.433 24.79 621.433 26.0303V26.1255C621.433 26.897 621.284 27.5903 620.986 28.2056C620.693 28.8159 620.271 29.292 619.719 29.6338C619.172 29.9756 618.542 30.1465 617.829 30.1465C616.755 30.1465 615.883 29.7729 615.214 29.0259C614.55 28.2788 614.218 27.29 614.218 26.0596V25.9644ZM615.581 26.1255C615.581 27.0044 615.783 27.71 616.188 28.2422C616.599 28.7744 617.146 29.0405 617.829 29.0405C618.518 29.0405 619.064 28.772 619.47 28.2349C619.875 27.6929 620.078 26.936 620.078 25.9644C620.078 25.0952 619.87 24.3921 619.455 23.855C619.045 23.313 618.498 23.042 617.814 23.042C617.146 23.042 616.606 23.3081 616.196 23.8403C615.786 24.3726 615.581 25.1343 615.581 26.1255ZM622.802 25.9717C622.802 24.7559 623.09 23.7793 623.667 23.042C624.243 22.2998 624.997 21.9287 625.93 21.9287C626.857 21.9287 627.592 22.2461 628.134 22.8809V18.75H629.489V30H628.244L628.178 29.1504C627.636 29.8145 626.882 30.1465 625.915 30.1465C624.997 30.1465 624.248 29.7705 623.667 29.0186C623.09 28.2666 622.802 27.2852 622.802 26.0742V25.9717ZM624.157 26.1255C624.157 27.0239 624.343 27.7271 624.714 28.2349C625.085 28.7427 625.598 28.9966 626.252 28.9966C627.111 28.9966 627.739 28.6108 628.134 27.8394V24.1992C627.729 23.4521 627.106 23.0786 626.267 23.0786C625.603 23.0786 625.085 23.335 624.714 23.8477C624.343 24.3604 624.157 25.1196 624.157 26.1255ZM636.491 29.2163C635.964 29.8364 635.19 30.1465 634.169 30.1465C633.325 30.1465 632.68 29.9023 632.236 29.4141C631.796 28.9209 631.574 28.1934 631.569 27.2314V22.0752H632.924V27.1948C632.924 28.396 633.413 28.9966 634.389 28.9966C635.424 28.9966 636.113 28.6108 636.455 27.8394V22.0752H637.81V30H636.521L636.491 29.2163ZM643.054 29.0405C643.537 29.0405 643.959 28.894 644.321 28.6011C644.682 28.3081 644.882 27.9419 644.921 27.5024H646.203C646.179 27.9565 646.022 28.3887 645.734 28.7988C645.446 29.209 645.061 29.5361 644.577 29.7803C644.099 30.0244 643.591 30.1465 643.054 30.1465C641.975 30.1465 641.115 29.7876 640.476 29.0698C639.841 28.3472 639.523 27.3608 639.523 26.1108V25.8838C639.523 25.1123 639.665 24.4263 639.948 23.8257C640.231 23.2251 640.637 22.7588 641.164 22.4268C641.696 22.0947 642.324 21.9287 643.046 21.9287C643.935 21.9287 644.672 22.1948 645.258 22.7271C645.849 23.2593 646.164 23.9502 646.203 24.7998H644.921C644.882 24.2871 644.687 23.8672 644.335 23.54C643.989 23.208 643.559 23.042 643.046 23.042C642.358 23.042 641.823 23.291 641.442 23.7891C641.066 24.2822 640.878 24.9976 640.878 25.9351V26.1914C640.878 27.1045 641.066 27.8076 641.442 28.3008C641.818 28.7939 642.355 29.0405 643.054 29.0405ZM649.565 20.1562V22.0752H651.044V23.1226H649.565V28.0371C649.565 28.3545 649.631 28.5938 649.763 28.7549C649.895 28.9111 650.119 28.9893 650.437 28.9893C650.593 28.9893 650.808 28.96 651.081 28.9014V30C650.725 30.0977 650.378 30.1465 650.041 30.1465C649.436 30.1465 648.979 29.9634 648.671 29.5972C648.364 29.231 648.21 28.7109 648.21 28.0371V23.1226H646.767V22.0752H648.21V20.1562H649.565ZM657.248 27.8979C657.248 27.5317 657.109 27.2485 656.831 27.0483C656.557 26.8433 656.076 26.6675 655.388 26.521C654.704 26.3745 654.16 26.1987 653.754 25.9937C653.354 25.7886 653.056 25.5444 652.861 25.2612C652.67 24.978 652.575 24.6411 652.575 24.2505C652.575 23.6011 652.849 23.0518 653.396 22.6025C653.947 22.1533 654.65 21.9287 655.505 21.9287C656.403 21.9287 657.131 22.1606 657.688 22.6245C658.249 23.0884 658.53 23.6816 658.53 24.4043H657.167C657.167 24.0332 657.009 23.7134 656.691 23.4448C656.379 23.1763 655.983 23.042 655.505 23.042C655.012 23.042 654.626 23.1494 654.348 23.3643C654.069 23.5791 653.93 23.8599 653.93 24.2065C653.93 24.5337 654.06 24.7803 654.318 24.9463C654.577 25.1123 655.043 25.271 655.717 25.4224C656.396 25.5737 656.945 25.7544 657.365 25.9644C657.785 26.1743 658.095 26.4282 658.295 26.7261C658.5 27.019 658.603 27.3779 658.603 27.8027C658.603 28.5107 658.32 29.0796 657.753 29.5093C657.187 29.9341 656.452 30.1465 655.549 30.1465C654.914 30.1465 654.353 30.0342 653.864 29.8096C653.376 29.585 652.993 29.2725 652.714 28.8721C652.441 28.4668 652.304 28.0298 652.304 27.561H653.659C653.684 28.0151 653.864 28.3765 654.201 28.645C654.543 28.9087 654.992 29.0405 655.549 29.0405C656.062 29.0405 656.472 28.938 656.779 28.7329C657.092 28.5229 657.248 28.2446 657.248 27.8979Z" fill="white"/>
<g filter="url(#filter0_d_1_270)">
<path d="M732 26C732 14.9543 740.954 6 752 6H899C910.046 6 919 14.9543 919 26C919 37.0457 910.046 46 899 46H752C740.954 46 732 37.0457 732 26Z" fill="white"/>
</g>
<path d="M782.844 30V19.3359H786.33C787.487 19.3359 788.356 19.5752 788.938 20.0537C789.523 20.5322 789.816 21.2402 789.816 22.1777C789.816 22.6758 789.675 23.1177 789.392 23.5034C789.108 23.8843 788.723 24.1797 788.234 24.3896C788.811 24.5508 789.265 24.8584 789.597 25.3125C789.934 25.7617 790.102 26.2988 790.102 26.9238C790.102 27.8809 789.792 28.6328 789.172 29.1797C788.552 29.7266 787.675 30 786.542 30H782.844ZM784.25 25.0122V28.8501H786.572C787.226 28.8501 787.741 28.6816 788.117 28.3447C788.498 28.0029 788.688 27.5342 788.688 26.9385C788.688 25.6543 787.99 25.0122 786.594 25.0122H784.25ZM784.25 23.8843H786.374C786.989 23.8843 787.48 23.7305 787.846 23.4229C788.217 23.1152 788.403 22.6978 788.403 22.1704C788.403 21.5845 788.232 21.1597 787.89 20.896C787.548 20.6274 787.028 20.4932 786.33 20.4932H784.25V23.8843ZM791.618 25.9644C791.618 25.188 791.77 24.4897 792.072 23.8696C792.38 23.2495 792.805 22.771 793.347 22.4341C793.894 22.0972 794.516 21.9287 795.214 21.9287C796.293 21.9287 797.165 22.3022 797.829 23.0493C798.498 23.7964 798.833 24.79 798.833 26.0303V26.1255C798.833 26.897 798.684 27.5903 798.386 28.2056C798.093 28.8159 797.67 29.292 797.119 29.6338C796.572 29.9756 795.942 30.1465 795.229 30.1465C794.155 30.1465 793.283 29.7729 792.614 29.0259C791.95 28.2788 791.618 27.29 791.618 26.0596V25.9644ZM792.98 26.1255C792.98 27.0044 793.183 27.71 793.588 28.2422C793.999 28.7744 794.545 29.0405 795.229 29.0405C795.917 29.0405 796.464 28.772 796.87 28.2349C797.275 27.6929 797.478 26.936 797.478 25.9644C797.478 25.0952 797.27 24.3921 796.855 23.855C796.445 23.313 795.898 23.042 795.214 23.042C794.545 23.042 794.006 23.3081 793.596 23.8403C793.186 24.3726 792.98 25.1343 792.98 26.1255ZM800.173 25.9644C800.173 25.188 800.324 24.4897 800.627 23.8696C800.935 23.2495 801.359 22.771 801.901 22.4341C802.448 22.0972 803.071 21.9287 803.769 21.9287C804.848 21.9287 805.72 22.3022 806.384 23.0493C807.053 23.7964 807.387 24.79 807.387 26.0303V26.1255C807.387 26.897 807.238 27.5903 806.94 28.2056C806.647 28.8159 806.225 29.292 805.673 29.6338C805.126 29.9756 804.497 30.1465 803.784 30.1465C802.709 30.1465 801.838 29.7729 801.169 29.0259C800.505 28.2788 800.173 27.29 800.173 26.0596V25.9644ZM801.535 26.1255C801.535 27.0044 801.738 27.71 802.143 28.2422C802.553 28.7744 803.1 29.0405 803.784 29.0405C804.472 29.0405 805.019 28.772 805.424 28.2349C805.83 27.6929 806.032 26.936 806.032 25.9644C806.032 25.0952 805.825 24.3921 805.41 23.855C805 23.313 804.453 23.042 803.769 23.042C803.1 23.042 802.561 23.3081 802.15 23.8403C801.74 24.3726 801.535 25.1343 801.535 26.1255ZM811.298 26.3306L810.449 27.2168V30H809.094V18.75H810.449V25.5542L811.174 24.6826L813.642 22.0752H815.29L812.207 25.3857L815.649 30H814.06L811.298 26.3306ZM825.302 30C825.224 29.8438 825.161 29.5654 825.112 29.165C824.482 29.8193 823.73 30.1465 822.856 30.1465C822.075 30.1465 821.433 29.9268 820.93 29.4873C820.432 29.043 820.183 28.4814 820.183 27.8027C820.183 26.9775 820.495 26.3379 821.12 25.8838C821.75 25.4248 822.634 25.1953 823.771 25.1953H825.09V24.5728C825.09 24.0991 824.948 23.7231 824.665 23.4448C824.382 23.1616 823.964 23.02 823.413 23.02C822.929 23.02 822.524 23.1421 822.197 23.3862C821.87 23.6304 821.706 23.9258 821.706 24.2725H820.344C820.344 23.877 820.483 23.4961 820.761 23.1299C821.044 22.7588 821.425 22.4658 821.904 22.251C822.387 22.0361 822.917 21.9287 823.493 21.9287C824.406 21.9287 825.122 22.1582 825.639 22.6172C826.157 23.0713 826.425 23.6987 826.445 24.4995V28.147C826.445 28.8745 826.538 29.4531 826.723 29.8828V30H825.302ZM823.054 28.9673C823.479 28.9673 823.881 28.8574 824.262 28.6377C824.643 28.418 824.919 28.1323 825.09 27.7808V26.1548H824.028C822.368 26.1548 821.538 26.6406 821.538 27.6123C821.538 28.0371 821.679 28.3691 821.962 28.6084C822.246 28.8477 822.609 28.9673 823.054 28.9673ZM831.96 25.9717C831.96 24.7559 832.248 23.7793 832.824 23.042C833.4 22.2998 834.155 21.9287 835.087 21.9287C836.015 21.9287 836.75 22.2461 837.292 22.8809V18.75H838.647V30H837.402L837.336 29.1504C836.794 29.8145 836.04 30.1465 835.073 30.1465C834.155 30.1465 833.405 29.7705 832.824 29.0186C832.248 28.2666 831.96 27.2852 831.96 26.0742V25.9717ZM833.315 26.1255C833.315 27.0239 833.5 27.7271 833.872 28.2349C834.243 28.7427 834.755 28.9966 835.41 28.9966C836.269 28.9966 836.896 28.6108 837.292 27.8394V24.1992C836.887 23.4521 836.264 23.0786 835.424 23.0786C834.76 23.0786 834.243 23.335 833.872 23.8477C833.5 24.3604 833.315 25.1196 833.315 26.1255ZM844.045 30.1465C842.971 30.1465 842.097 29.7949 841.423 29.0918C840.749 28.3838 840.412 27.439 840.412 26.2573V26.0083C840.412 25.2222 840.561 24.5215 840.859 23.9062C841.162 23.2861 841.582 22.8027 842.119 22.4561C842.661 22.1045 843.247 21.9287 843.876 21.9287C844.907 21.9287 845.708 22.2681 846.279 22.9468C846.85 23.6255 847.136 24.5972 847.136 25.8618V26.4258H841.767C841.787 27.207 842.014 27.8394 842.448 28.3228C842.888 28.8013 843.444 29.0405 844.118 29.0405C844.597 29.0405 845.002 28.9429 845.334 28.7476C845.666 28.5522 845.957 28.2935 846.206 27.9712L847.033 28.6157C846.369 29.6362 845.373 30.1465 844.045 30.1465ZM843.876 23.042C843.33 23.042 842.871 23.2422 842.5 23.6426C842.128 24.0381 841.899 24.5947 841.811 25.3125H845.781V25.21C845.742 24.5215 845.556 23.9893 845.224 23.6133C844.892 23.2324 844.443 23.042 843.876 23.042ZM849.985 22.0752L850.021 22.9541C850.603 22.2705 851.386 21.9287 852.373 21.9287C853.481 21.9287 854.235 22.3535 854.636 23.2031C854.899 22.8223 855.241 22.5146 855.661 22.2803C856.086 22.0459 856.586 21.9287 857.163 21.9287C858.901 21.9287 859.785 22.8491 859.814 24.6899V30H858.459V24.7705C858.459 24.2041 858.33 23.7817 858.071 23.5034C857.812 23.2202 857.377 23.0786 856.767 23.0786C856.264 23.0786 855.847 23.23 855.515 23.5327C855.183 23.8306 854.99 24.2334 854.936 24.7412V30H853.574V24.8071C853.574 23.6548 853.01 23.0786 851.882 23.0786C850.993 23.0786 850.385 23.457 850.058 24.2139V30H848.703V22.0752H849.985ZM861.506 25.9644C861.506 25.188 861.657 24.4897 861.96 23.8696C862.268 23.2495 862.692 22.771 863.234 22.4341C863.781 22.0972 864.404 21.9287 865.102 21.9287C866.181 21.9287 867.053 22.3022 867.717 23.0493C868.386 23.7964 868.72 24.79 868.72 26.0303V26.1255C868.72 26.897 868.571 27.5903 868.273 28.2056C867.98 28.8159 867.558 29.292 867.006 29.6338C866.459 29.9756 865.83 30.1465 865.117 30.1465C864.042 30.1465 863.171 29.7729 862.502 29.0259C861.838 28.2788 861.506 27.29 861.506 26.0596V25.9644ZM862.868 26.1255C862.868 27.0044 863.071 27.71 863.476 28.2422C863.886 28.7744 864.433 29.0405 865.117 29.0405C865.805 29.0405 866.352 28.772 866.757 28.2349C867.163 27.6929 867.365 26.936 867.365 25.9644C867.365 25.0952 867.158 24.3921 866.743 23.855C866.333 23.313 865.786 23.042 865.102 23.042C864.433 23.042 863.894 23.3081 863.483 23.8403C863.073 24.3726 862.868 25.1343 862.868 26.1255Z" fill="#6F2CFF"/>
<defs>
<filter id="filter0_d_1_270" x="732" y="6" width="187" height="40" filterUnits="userSpaceOnUse" color-interpolation-filters="sRGB">
<feFlood flood-opacity="0" result="BackgroundImageFix"/>
<feColorMatrix in="SourceAlpha" type="matrix" values="0 0 0 0 0 0 0 0 0 0 0 0 0 0 0 0 0 0 127 0" result="hardAlpha"/>
<feOffset/>
<feColorMatrix type="matrix" values="0 0 0 0 0.435294 0 0 0 0 0.172549 0 0 0 0 1 0 0 0 1 0"/>
<feBlend mode="normal" in2="BackgroundImageFix" result="effect1_dropShadow_1_270"/>
<feBlend mode="normal" in="SourceGraphic" in2="effect1_dropShadow_1_270" result="shape"/>
</filter>
</defs>
</svg>
